<?xml version="1.0" standalone="no"?>
<!DOCTYPE svg PUBLIC "-//W3C//DTD SVG 20010904//EN"
 "http://www.w3.org/TR/2001/REC-SVG-20010904/DTD/svg10.dtd">
<svg version="1.0" xmlns="http://www.w3.org/2000/svg"
 width="525.000000pt" height="525.000000pt" viewBox="0 0 525.000000 525.000000"
 preserveAspectRatio="xMidYMid meet">
<metadata>
Created by potrace 1.11, written by Peter Selinger 2001-2013
</metadata>
<g transform="translate(0.000000,525.000000) scale(0.100000,-0.100000)"
fill="#000000" stroke="none">
<path d="M1435 5191 c-6 -5 -75 -14 -117 -15 -21 -1 -38 -4 -38 -7 0 -3 -7 -6
-15 -6 -8 0 -15 5 -15 11 0 6 -4 5 -9 -3 -5 -8 -15 -16 -23 -17 -59 -10 -83
-16 -100 -25 -10 -5 -23 -7 -28 -4 -6 3 -10 1 -10 -5 0 -7 -7 -10 -15 -6 -8 3
-15 2 -15 -2 0 -5 -17 -14 -37 -21 -21 -8 -57 -22 -81 -32 -23 -10 -45 -18
-49 -18 -3 0 -9 -3 -12 -8 -12 -16 -52 -34 -63 -27 -7 5 -8 2 -3 -6 6 -10 4
-12 -8 -7 -9 3 -16 2 -14 -4 1 -5 -11 -17 -28 -27 -16 -9 -33 -21 -37 -27 -5
-7 -8 -7 -8 0 0 7 -3 7 -8 0 -16 -22 -80 -64 -88 -57 -5 4 -6 3 -2 -1 9 -13
-31 -49 -45 -41 -7 4 -9 4 -5 0 4 -5 -29 -44 -72 -87 -43 -43 -77 -79 -74 -79
2 0 -6 -10 -18 -22 -13 -13 -26 -22 -30 -21 -5 2 -7 0 -7 -5 3 -19 -2 -33 -11
-27 -6 4 -7 -1 -3 -11 5 -14 2 -16 -16 -11 -16 4 -20 2 -12 -6 11 -14 -11 -52
-23 -40 -4 4 -4 0 0 -10 3 -9 2 -17 -3 -17 -6 0 -18 -18 -28 -40 -10 -22 -22
-40 -27 -40 -5 0 -6 -4 -3 -10 3 -5 1 -10 -5 -10 -6 0 -9 -4 -6 -8 3 -5 -3
-18 -13 -28 -9 -11 -15 -26 -13 -33 3 -9 0 -11 -8 -6 -8 5 -11 4 -7 -3 10 -15
-3 -43 -16 -35 -6 3 -7 1 -3 -5 4 -6 -1 -28 -9 -49 -9 -21 -18 -45 -20 -53 -2
-8 -10 -40 -19 -71 -9 -31 -18 -70 -20 -87 -4 -29 -4 -30 22 -16 18 9 28 10
33 3 4 -8 9 -8 13 -1 5 9 79 10 96 2 3 -1 9 -2 14 -1 4 1 22 -3 40 -9 17 -5
34 -10 39 -10 13 1 71 -34 90 -54 9 -10 17 -15 17 -11 0 8 38 -31 72 -73 24
-29 49 -92 42 -103 -3 -5 -1 -9 5 -9 5 0 10 -12 10 -27 0 -16 2 -43 5 -60 2
-18 1 -33 -4 -33 -5 0 -7 -7 -4 -15 4 -8 3 -23 -2 -32 -9 -22 -11 -29 -13 -46
0 -7 -8 -22 -17 -33 -8 -10 -12 -13 -8 -5 4 9 3 12 -4 7 -6 -4 -9 -12 -6 -19
7 -19 -70 -102 -86 -92 -8 5 -11 4 -7 -2 7 -11 -34 -44 -59 -47 -8 -1 -20 -8
-26 -14 -7 -7 -21 -12 -33 -12 -11 0 -27 -4 -34 -9 -9 -6 -22 -6 -34 1 -14 7
-17 7 -13 -1 4 -7 -6 -10 -28 -9 -19 1 -33 5 -29 11 3 5 -4 4 -14 -2 -11 -6
-23 -8 -26 -5 -3 3 -24 8 -46 10 -34 3 -41 1 -42 -14 -1 -17 0 -291 1 -303 0
-9 63 -5 78 5 7 4 16 5 21 1 5 -3 12 -1 16 4 3 7 15 7 30 1 14 -5 27 -6 30 0
3 5 28 2 58 -6 75 -22 106 -37 100 -48 -3 -5 -1 -6 5 -3 16 11 44 -4 38 -20
-3 -8 -1 -11 4 -8 6 3 19 0 30 -8 26 -18 80 -93 73 -101 -4 -3 -1 -6 5 -6 14
0 36 -66 26 -81 -5 -8 -3 -9 6 -4 8 5 11 3 8 -6 -3 -8 -1 -24 3 -36 6 -16 5
-23 -4 -23 -7 0 -8 -3 -2 -8 12 -9 19 -42 8 -42 -4 0 -9 -12 -10 -26 -2 -41
-33 -115 -45 -108 -6 4 -8 2 -5 -3 12 -20 -58 -96 -80 -88 -7 2 -10 -2 -6 -11
3 -8 -1 -14 -11 -14 -9 0 -16 -5 -16 -11 0 -6 -7 -8 -17 -5 -10 4 -14 4 -10 0
9 -9 -42 -36 -54 -28 -5 3 -9 0 -9 -6 0 -7 -6 -10 -12 -7 -7 2 -21 0 -31 -5
-10 -5 -44 -9 -75 -8 -31 1 -65 1 -75 1 -9 0 -16 3 -13 7 2 4 -11 8 -30 8 -19
1 -34 -4 -35 -10 0 -11 0 -248 1 -295 0 -22 2 -23 43 -16 23 4 70 9 105 10 51
2 62 -1 62 -14 0 -13 2 -13 9 -3 7 11 16 11 49 1 23 -6 39 -16 35 -22 -3 -6
-1 -7 5 -3 11 7 88 -29 99 -47 4 -6 1 -7 -8 -2 -8 5 -11 4 -6 -1 5 -5 14 -9
20 -9 16 0 78 -85 71 -97 -4 -6 -2 -8 4 -4 13 8 36 -58 28 -80 -3 -9 -1 -12 4
-9 9 6 12 -5 13 -65 1 -45 -14 -120 -24 -120 -6 0 -7 -4 -4 -10 8 -13 -19 -52
-29 -43 -4 4 -4 1 -1 -8 3 -8 -11 -32 -35 -59 -22 -24 -40 -41 -40 -37 0 4
-10 -2 -23 -14 -24 -23 -74 -47 -122 -59 -16 -4 -39 -11 -49 -16 -15 -5 -17
-4 -11 6 6 10 4 11 -6 4 -22 -13 -42 -14 -58 -1 -12 9 -13 9 -7 -1 5 -9 -2
-11 -31 -6 -21 3 -42 8 -47 11 -14 9 -25 -19 -17 -41 5 -12 7 -29 5 -39 -1 -9
2 -15 6 -12 5 3 9 -3 9 -12 1 -39 5 -53 13 -53 5 0 7 -4 4 -8 -3 -5 1 -20 9
-35 8 -15 12 -27 10 -27 -2 0 4 -19 15 -42 10 -23 16 -46 14 -50 -3 -4 0 -8 5
-8 6 0 11 -9 11 -20 0 -11 4 -20 9 -20 8 0 22 -32 25 -55 1 -5 9 -17 19 -25
10 -8 19 -22 20 -31 2 -9 14 -32 28 -50 14 -19 33 -47 43 -62 9 -16 26 -38 36
-50 11 -12 20 -25 20 -29 0 -4 20 -27 45 -51 24 -25 42 -47 38 -51 -3 -3 1 -6
10 -6 8 0 18 -9 22 -20 3 -11 9 -19 13 -17 8 2 60 -41 106 -88 16 -16 26 -23
22 -15 -4 8 1 5 12 -7 11 -12 21 -20 24 -18 2 3 20 -10 39 -27 19 -17 36 -31
39 -31 11 1 50 -21 50 -27 0 -4 6 -7 13 -7 23 -2 127 -59 120 -67 -4 -4 0 -4
10 0 9 3 17 1 17 -5 0 -6 7 -8 17 -4 10 4 14 2 10 -4 -4 -6 -1 -10 6 -10 21 1
77 -15 77 -23 0 -3 6 -7 13 -8 6 0 23 -3 37 -6 83 -17 108 -24 120 -31 7 -4
29 -9 49 -10 191 -14 237 -19 243 -29 6 -8 8 -7 8 2 0 16 42 16 59 -1 11 -9
13 -9 7 1 -6 9 13 12 78 12 58 0 86 -4 89 -12 4 -10 6 -10 6 0 1 6 12 12 25
12 13 0 27 -6 29 -12 4 -10 6 -10 6 0 1 8 25 12 86 12 61 0 85 -3 85 -12 0 -9
2 -10 8 -2 10 17 224 17 234 1 6 -9 8 -9 8 1 0 16 47 16 53 0 4 -10 6 -10 6 0
1 8 25 12 86 12 61 0 85 -3 85 -12 0 -9 2 -10 8 -2 10 17 224 17 234 1 6 -9 8
-9 8 1 0 6 11 12 24 12 13 0 27 -6 29 -12 4 -10 6 -10 6 0 1 8 25 12 86 12 61
0 85 -3 85 -12 0 -9 2 -10 8 -2 10 17 224 17 234 1 6 -9 8 -9 8 1 0 6 11 12
24 12 13 0 27 -6 29 -12 4 -10 6 -10 6 0 1 8 25 12 86 12 61 0 85 -3 85 -12 0
-9 2 -10 8 -2 10 17 232 18 232 1 0 -9 3 -8 9 1 5 8 24 13 47 12 22 -1 41 -1
44 0 3 1 25 3 50 5 25 2 61 6 80 10 19 3 50 8 69 11 18 2 37 7 43 10 5 3 19 7
31 9 35 6 58 13 116 36 13 5 26 8 28 5 3 -3 12 2 20 10 9 8 22 13 29 10 8 -3
14 -1 14 5 0 6 7 8 16 5 8 -3 12 -2 9 4 -3 5 6 12 20 16 14 3 25 10 25 14 0 5
11 7 25 6 13 -2 22 1 19 5 -3 5 6 13 19 18 14 6 28 14 31 20 4 5 15 8 26 6 12
-2 18 0 15 5 -6 9 34 36 48 32 5 -1 6 1 3 6 -6 11 43 36 64 33 13 -2 13 -1 0
8 -12 8 -8 13 20 25 19 8 31 15 27 16 -5 0 6 12 23 27 47 39 189 183 181 183
-3 1 5 10 18 20 13 11 20 20 16 20 -3 0 0 7 7 15 31 34 36 43 31 49 -4 3 -1 6
5 6 6 0 17 11 24 24 7 13 23 42 36 65 12 22 27 41 33 41 6 0 8 4 5 9 -8 12 19
63 28 54 4 -4 4 0 0 10 -3 10 -1 17 5 17 6 0 10 3 9 7 -1 5 4 19 11 31 7 13
10 26 7 29 -3 4 0 13 6 21 7 7 14 23 15 35 2 12 8 24 14 28 6 3 10 9 10 13 -4
25 0 46 8 42 4 -3 6 6 3 19 -2 14 0 25 4 25 5 0 9 10 10 23 1 12 5 40 9 62 4
22 8 48 7 58 0 9 2 16 6 13 11 -6 11 35 12 1284 1 1158 0 1244 -19 1318 -5 20
-10 44 -10 52 -4 43 -8 67 -15 78 -4 7 -5 16 -2 21 4 5 2 11 -4 13 -5 1 -11
15 -12 31 -1 15 -5 27 -9 27 -3 0 -6 6 -7 13 -3 31 -7 52 -13 57 -14 13 -39
82 -33 92 4 7 3 8 -4 4 -7 -4 -12 -2 -12 3 0 18 -3 26 -17 40 -8 7 -12 20 -9
28 3 8 2 12 -3 9 -9 -6 -38 53 -33 67 1 5 -3 5 -9 1 -9 -5 -10 -2 -6 9 3 9 2
16 -4 14 -5 -1 -17 12 -27 28 -9 17 -20 32 -24 33 -5 2 -8 8 -8 13 0 5 -9 18
-20 29 -12 12 -18 25 -15 31 4 5 2 8 -3 7 -14 -4 -53 43 -45 55 3 5 1 7 -4 4
-13 -8 -46 27 -36 37 5 4 3 6 -2 4 -14 -4 -66 48 -57 58 4 4 2 4 -5 0 -6 -3
-19 4 -27 16 -9 12 -16 19 -16 15 0 -4 -8 1 -18 11 -11 9 -17 21 -14 26 3 5 1
6 -5 3 -5 -4 -19 1 -29 11 -10 9 -36 28 -56 42 -20 13 -34 29 -31 34 4 5 1 6
-7 1 -8 -5 -17 -2 -24 7 -6 8 -15 16 -21 18 -27 7 -55 24 -55 32 0 5 -5 6 -10
3 -6 -3 -13 0 -16 9 -3 8 -12 12 -19 10 -7 -3 -22 3 -32 13 -10 10 -22 18 -28
19 -24 1 -65 17 -65 25 0 5 -3 8 -7 8 -23 -4 -43 2 -38 11 3 5 0 7 -8 4 -7 -2
-27 1 -43 7 -16 7 -38 14 -49 16 -37 8 -50 11 -50 13 0 2 -22 6 -79 15 -22 3
-43 8 -48 11 -5 3 -48 8 -96 11 -99 5 -2392 10 -2397 4z"/>
</g>
</svg>
